<svg xmlns="http://www.w3.org/2000/svg" version="1.1" xmlns:xlink="http://www.w3.org/1999/xlink" xmlns:svgjs="http://svgjs.dev/svgjs" width="1500" height="1500" viewBox="0 0 1500 1500"><rect width="1500" height="1500" fill="#ffffff"></rect><g transform="matrix(0.6666666666666666,0,0,0.6666666666666666,249.39393939393938,438.5856950067477)"><svg viewBox="0 0 396 247" data-background-color="#ffffff" preserveAspectRatio="xMidYMid meet" height="935" width="1500" xmlns="http://www.w3.org/2000/svg" xmlns:xlink="http://www.w3.org/1999/xlink"><g id="tight-bounds" transform="matrix(1,0,0,1,0.2400000000000091,-0.09999999999999432)"><svg viewBox="0 0 395.52 247.2" height="247.2" width="395.52"><g><svg></svg></g><g><svg viewBox="0 0 395.52 247.2" height="247.2" width="395.52"><g transform="matrix(1,0,0,1,75.54432,86.88178290333445)"><svg viewBox="0 0 244.43135999999998 73.43643419333108" height="73.43643419333108" width="244.43135999999998"><g><svg viewBox="0 0 244.43135999999998 73.43643419333108" height="73.43643419333108" width="244.43135999999998"><g><svg viewBox="0 0 244.43135999999998 73.43643419333108" height="73.43643419333108" width="244.43135999999998"><g><svg viewBox="0 0 244.43135999999998 73.43643419333108" height="73.43643419333108" width="244.43135999999998"><g id="textblocktransform"><svg viewBox="0 0 244.43135999999998 73.43643419333108" height="73.43643419333108" width="244.43135999999998" id="textblock"><g><svg viewBox="0 0 244.43135999999998 73.43643419333108" height="73.43643419333108" width="244.43135999999998"><g transform="matrix(1,0,0,1,0,0)"><svg width="244.43135999999998" viewBox="3.5 -35.9 148.44 44.599999999999994" height="73.43643419333108" data-palette-color="#39cccc"><path d="M7.55 0L3.5 0 5.95-33.7 11.1-33.7 15.55-21.4 20.95-5.7Q23.85-13.9 26.65-21.4L26.65-21.4 31.3-33.7 36.45-33.7 39.4 0 35.35 0 34.2-13.3 33-28.25Q30.35-20.85 27.55-13.3L27.55-13.3 22.85-0.75 19-0.75 14.55-13.3 9.45-27.95Q9.45-26 8.5-13.3L8.5-13.3 7.55 0ZM50.65 0L46.7 0 46.7-25.35 50.65-25.35 50.65 0ZM46.82-31.48Q46.1-32.2 46.1-33.3 46.1-34.4 46.82-35.15 47.55-35.9 48.65-35.9 49.75-35.9 50.5-35.15 51.25-34.4 51.25-33.3 51.25-32.2 50.5-31.48 49.75-30.75 48.65-30.75 47.55-30.75 46.82-31.48ZM60.75-12.55L60.75-12.55Q60.8-8.45 63.25-5.73 65.7-3 70.2-3L70.2-3Q73.09-3 75.59-4.65L75.59-4.65 75.59-0.9Q73.2 0.55 69.7 0.55L69.7 0.55Q63.7 0.55 60.17-3.28 56.65-7.1 56.65-12.6L56.65-12.6Q56.65-18 60.17-21.9 63.7-25.8 69.8-25.8L69.8-25.8Q73.05-25.8 75.59-24.4L75.59-24.4 75.59-20.65Q73.3-22.2 70.2-22.2L70.2-22.2Q65.9-22.2 63.32-19.43 60.75-16.65 60.75-12.55ZM85.59 0L81.69 0 81.69-35.15 85.59-35.15 85.59 0ZM100.74-25.35L90.74-13.3 101.04 0 96.29 0 86.09-13.3 96.04-25.35 100.74-25.35ZM108.24-14.3L121.84-14.3 121.84-15.3Q121.84-18.45 120.14-20.33 118.44-22.2 115.44-22.2L115.44-22.2Q112.59-22.2 110.59-20.15 108.59-18.1 108.24-14.3L108.24-14.3ZM124.19-5L124.19-5 124.19-1.3Q121.24 0.25 116.99 0.25L116.99 0.25Q111.24 0.25 107.72-3.28 104.19-6.8 104.19-12.6L104.19-12.6Q104.19-18.65 107.34-22.15 110.49-25.65 115.44-25.65L115.44-25.65Q120.19-25.65 122.99-22.6 125.79-19.55 125.79-13.95L125.79-13.95Q125.79-12.35 125.54-11L125.54-11 108.24-11Q108.69-7.25 111.09-5.25 113.49-3.25 117.39-3.25L117.39-3.25Q121.64-3.25 124.19-5ZM138.79-0.65L138.79-0.65 128.54-25.35 132.99-25.35 136.29-17 140.74-5.5Q141.14-6.8 144.74-17L144.74-17 147.69-25.35 151.94-25.35 142.79-0.65Q140.84 4.5 138.16 6.6 135.49 8.7 132.04 8.7L132.04 8.7Q130.74 8.7 129.94 8.45L129.94 8.45 129.94 4.9Q130.69 5.1 131.64 5.1L131.64 5.1Q136.69 5.1 138.79-0.65Z" opacity="1" transform="matrix(1,0,0,1,0,0)" fill="#39cccc" class="wordmark-text-0" data-fill-palette-color="primary" id="text-0"></path></svg></g></svg></g></svg></g></svg></g></svg></g></svg></g></svg></g><g><path d="M245.816 0c68.262 0 123.6 55.338 123.6 123.6 0 68.262-55.338 123.6-123.6 123.6-52.239 0-96.908-32.407-115.001-78.213l3.569 0c17.913 43.936 61.056 74.902 111.432 74.902 66.434 0 120.289-53.855 120.288-120.289 0-66.434-53.855-120.289-120.288-120.289-50.376 0-93.519 30.966-111.432 74.903l-3.569 0c18.093-45.806 62.762-78.213 115.001-78.214z" fill="#4a596d" stroke="transparent" data-fill-palette-color="tertiary"></path></g></svg></g><defs></defs></svg><rect width="395.52" height="247.2" fill="none" stroke="none" visibility="hidden"></rect></g></svg></g></svg>